<?xml version="1.0" encoding="utf-8"?>
<!-- Generator: Adobe Illustrator 27.0.0, SVG Export Plug-In . SVG Version: 6.00 Build 0)  -->
<svg version="1.1" id="Layer_1" xmlns="http://www.w3.org/2000/svg" xmlns:xlink="http://www.w3.org/1999/xlink" x="0px" y="0px"
	 viewBox="0 0 366.23 416.01" style="enable-background:new 0 0 366.23 416.01;" xml:space="preserve">
<style type="text/css">
	.st0{fill:#FFFFFF;}
</style>
<g id="zyYU6G_00000020363165823812331290000014280558604851378623_">
	<g>
		<path class="st0" d="M187.37,275.04c19.08-0.62,34.7-8.61,46.63-23.23c32.61-39.94,10.05-98.64-40.95-107.04
			c-2.29-0.38-4.63-0.65-6.84-1.32c-6.96-2.13-11.64-9.31-11-16.59c0.67-7.59,6.68-13.99,14.68-14.56
			c8.73-0.63,14.6-4.83,18.43-12.43c1.05-2.08,2.16-4.13,3.4-6.1c3-4.76,7.62-6.47,12.86-4.59c4.22,1.52,8.37,3.26,12.49,5.04
			c6.18,2.66,8.36,7.13,6.75,13.69c-0.59,2.42-1.53,4.78-1.91,7.22c-0.48,3.09-1.07,6.3-0.72,9.36c1.07,9.38,9.1,13.88,14.73,20.03
			c6.36,6.95,14.11,7.94,22.83,5.4c14.38-4.2,16.3-3.17,22.05,10.83c0.82,2,1.65,4,2.42,6.02c2.24,5.88,1.05,11.06-4.71,13.47
			c-14.83,6.19-18.84,17.19-17.95,32.41c0.64,11.07,4.3,18.55,14.33,23.44c10.75,5.24,11.66,8.57,7.15,19.88
			c-1.04,2.62-2.1,5.24-3.26,7.82c-2.98,6.63-6.84,8.42-14.05,6.58c-1.93-0.49-3.86-0.99-5.78-1.55c-8.77-2.55-16.44-0.99-22.7,5.97
			c-0.56,0.62-1.15,1.22-1.79,1.74c-11.51,9.26-15.9,20.24-9.73,34.73c2.63,6.18-0.22,10.88-6.44,13.67
			c-4.09,1.83-8.23,3.58-12.42,5.18c-5.37,2.05-9.8,0.49-12.92-4.3c-0.18-0.28-0.4-0.55-0.52-0.85
			c-5.34-12.97-14.49-18.79-28.95-17.59c-9.11,0.76-16.13-7.45-16.04-16.26c0.09-9,7.53-16.04,16.96-16.06
			C185.37,275.04,186.37,275.04,187.37,275.04z"/>
		<path class="st0" d="M162.8,348.04c-5.83,0-11.66,0.12-17.49-0.03c-10.44-0.27-20.72-8.26-21.96-18.47
			c-3.56-29.41-15.69-55.85-27.61-82.39c-5.57-12.4-12.72-24.01-15.95-37.53C65.82,151.14,105.73,90.55,165,80.9
			c4.75-0.77,9.58-1.2,14.39-1.5c6.6-0.4,11.3,3.31,11.69,8.9c0.41,5.84-3.96,10.35-10.9,10.29c-32.73-0.27-70.93,24.28-81.26,65.86
			c-5.12,20.6-3.28,40.51,6.55,59.61c14.09,27.4,26.28,55.6,33.88,85.58c1.02,4.01,1.48,8.17,2.03,12.28
			c0.81,6.1,1.8,7.08,7.88,7.11c10.66,0.05,21.33-0.04,31.99,0.13c5.09,0.08,8.9,3.2,9.68,7.76c0.76,4.41-0.95,7.94-4.89,10.02
			c-1.52,0.81-3.47,1.06-5.24,1.1c-5.99,0.13-11.99,0.05-17.99,0.05C162.8,348.08,162.8,348.06,162.8,348.04z"/>
		<path class="st0" d="M160,252.16c0.15-0.97,0.24-1.8,0.41-2.61c2.15-9.99-5.75-18.05-15.47-15.28c-4.79,1.36-6.26-1.04-7.75-4.56
			c-1.5-3.54-2.06-6.43,2.06-8.9c8.78-5.26,8.76-16.63-0.03-21.68c-4.12-2.37-3.8-5.12-2.27-8.78c1.48-3.53,2.81-6.08,7.61-4.82
			c10.12,2.64,18.1-5.56,15.34-15.76c-1.23-4.57,1.25-5.94,4.52-7.35c3.4-1.47,6.34-2.53,8.92,1.74c5.42,8.96,16.75,8.94,22-0.06
			c2.53-4.33,5.49-3.27,8.89-1.92c3.38,1.33,5.71,2.95,4.61,7.39c-2.55,10.32,4.98,17.81,15.52,15.48c4.89-1.08,6.4,1.7,7.91,5.42
			c1.49,3.67,1.19,6.11-2.58,8.26c-8.37,4.76-8.35,16.69,0.04,21.44c3.71,2.1,4.23,4.5,2.78,8.22c-1.54,3.96-3.27,6.69-8.34,5.5
			c-9.6-2.25-17.52,5.67-15.06,15.11c1.32,5.06-1.32,6.82-5.27,8.44c-3.96,1.63-6.34,0.88-8.53-3c-4.61-8.16-16.23-7.76-21.36,0.2
			c-1.15,1.78-4.24,3.77-5.95,3.41C164.81,257.36,160.38,257.01,160,252.16z M184.72,236.15c14.8-0.05,26.54-11.93,26.43-26.74
			c-0.11-14.37-12.14-26.35-26.47-26.37c-14.67-0.02-26.61,11.95-26.61,26.66C158.08,224.6,169.77,236.2,184.72,236.15z"/>
		<path class="st0" d="M182.65,383.1c-15.17,0-30.33,0.03-45.5-0.01c-6.86-0.02-11-3.68-10.94-9.5c0.06-5.71,4.35-9.45,11.17-9.46
			c30.5-0.05,61-0.05,91.5-0.03c6.78,0,11.15,3.76,11.22,9.43c0.07,5.82-4.11,9.56-10.95,9.58c-15.5,0.05-31,0.02-46.5,0.02
			C182.65,383.12,182.65,383.11,182.65,383.1z"/>
		<path class="st0" d="M182.98,415.98c-7.31,0-14.62,0.07-21.93-0.02c-6.06-0.08-9.92-3.8-9.98-9.37c-0.06-5.54,3.85-9.55,9.77-9.59
			c14.78-0.1,29.57-0.09,44.35,0c6.06,0.03,9.94,3.81,10.02,9.38c0.09,5.72-3.91,9.51-10.32,9.58
			C197.6,416.04,190.29,415.98,182.98,415.98z"/>
		<path class="st0" d="M96.99,81.54c-1.99,2.32-3.49,4.98-5.75,6.5c-3.16,2.13-6.48,0.87-9.06-1.66c-6.07-5.94-12.03-11.99-18.03-18
			c-3.41-3.42-6.93-6.74-10.22-10.27c-3.58-3.85-3.6-8.33-0.31-11.59c3.27-3.25,7.76-3.23,11.57,0.48
			c9.41,9.2,18.72,18.49,27.91,27.9C94.64,76.47,95.41,78.78,96.99,81.54z"/>
		<path class="st0" d="M316.12,51.6c-1.6,2.77-2.39,5.06-3.92,6.62c-9.19,9.41-18.48,18.73-27.9,27.92
			c-3.83,3.73-8.26,3.71-11.57,0.48c-3.47-3.38-3.37-7.83,0.64-11.91c9.1-9.27,18.33-18.41,27.52-27.59c2.69-2.69,6-4.22,9.41-1.99
			C312.56,46.61,314.07,49.25,316.12,51.6z"/>
		<path class="st0" d="M191.1,27.97c0,6.49,0.05,12.98-0.02,19.47c-0.06,5.46-3.25,9.18-7.73,9.21c-4.82,0.03-8.14-3.67-8.17-9.33
			c-0.05-12.65-0.06-25.29-0.01-37.94c0.02-5.82,3.19-9.42,8.03-9.38c4.9,0.04,7.84,3.52,7.89,9.5c0.05,6.16,0.01,12.31,0.01,18.47
			C191.11,27.97,191.11,27.97,191.1,27.97z"/>
		<path class="st0" d="M337.99,184.01c-6.48,0-12.96,0.06-19.44-0.02c-5.3-0.07-8.54-3-8.65-7.59c-0.12-4.82,3.2-8.22,8.58-8.26
			c12.96-0.11,25.93-0.12,38.89,0c5.67,0.05,8.85,3.11,8.87,7.94c0.01,5.06-3.24,7.88-9.29,7.93
			C350.62,184.05,344.31,184.01,337.99,184.01z"/>
		<path class="st0" d="M28.12,184.02c-6.48,0-12.97,0.07-19.45-0.02c-5.28-0.07-8.52-3.02-8.66-7.62c-0.15-4.78,3.21-8.19,8.6-8.24
			c12.97-0.12,25.94-0.13,38.9-0.02c5.66,0.05,8.83,3.09,8.87,7.96c0.04,4.98-3.32,7.88-9.31,7.93
			C40.75,184.05,34.43,184.02,28.12,184.02z"/>
	</g>
</g>
</svg>
